<svg width="40" height="40" viewBox="0 0 40 40" fill="none" xmlns="http://www.w3.org/2000/svg">
<path d="M34.5 19C34.5 25.8388 28.0777 31.5 20 31.5C11.9223 31.5 5.5 25.8388 5.5 19C5.5 12.1612 11.9223 6.5 20 6.5C28.0777 6.5 34.5 12.1612 34.5 19Z" stroke="#42526E"/>
<rect x="2" y="2" width="11" height="11" rx="2" fill="#99CCFF"/>
<path d="M5.74707 9H4.98779L4.99268 8.51416H5.74707C5.9668 8.51416 6.15072 8.46615 6.29883 8.37012C6.44857 8.27409 6.56087 8.13656 6.63574 7.95752C6.71224 7.77848 6.75049 7.56527 6.75049 7.31787V7.125C6.75049 6.93294 6.72852 6.76286 6.68457 6.61475C6.64225 6.46663 6.57878 6.34212 6.49414 6.24121C6.41113 6.1403 6.30859 6.0638 6.18652 6.01172C6.06608 5.95964 5.92692 5.93359 5.76904 5.93359H4.97314V5.44531H5.76904C6.00505 5.44531 6.2207 5.48519 6.41602 5.56494C6.61133 5.64307 6.77979 5.75618 6.92139 5.9043C7.06462 6.05241 7.17448 6.22982 7.25098 6.43652C7.32747 6.64323 7.36572 6.87435 7.36572 7.12988V7.31787C7.36572 7.5734 7.32747 7.80452 7.25098 8.01123C7.17448 8.21794 7.06462 8.39535 6.92139 8.54346C6.77816 8.68994 6.60726 8.80306 6.40869 8.88281C6.21175 8.96094 5.99121 9 5.74707 9ZM5.32715 5.44531V9H4.71436V5.44531H5.32715ZM9.85107 8.08447C9.85107 8.01123 9.83968 7.94613 9.81689 7.88916C9.79574 7.83219 9.75749 7.78011 9.70215 7.73291C9.64681 7.68571 9.56868 7.64014 9.46777 7.59619C9.36849 7.55062 9.24154 7.50423 9.08691 7.45703C8.91764 7.40495 8.76139 7.34717 8.61816 7.28369C8.47656 7.21859 8.35286 7.14372 8.24707 7.05908C8.14128 6.97282 8.05908 6.87435 8.00049 6.76367C7.94189 6.65137 7.9126 6.52197 7.9126 6.37549C7.9126 6.23063 7.94271 6.0988 8.00293 5.97998C8.06478 5.86117 8.15186 5.75863 8.26416 5.67236C8.37809 5.58447 8.51237 5.51693 8.66699 5.46973C8.82161 5.4209 8.99251 5.39648 9.17969 5.39648C9.44336 5.39648 9.67041 5.44531 9.86084 5.54297C10.0529 5.64062 10.2002 5.77165 10.3027 5.93604C10.4069 6.10042 10.459 6.2819 10.459 6.48047H9.85107C9.85107 6.36328 9.82585 6.25993 9.77539 6.17041C9.72656 6.07926 9.65169 6.00765 9.55078 5.95557C9.4515 5.90348 9.32536 5.87744 9.17236 5.87744C9.02751 5.87744 8.90706 5.89941 8.81104 5.94336C8.71501 5.9873 8.64339 6.04671 8.59619 6.12158C8.54899 6.19645 8.52539 6.28109 8.52539 6.37549C8.52539 6.44222 8.54085 6.50326 8.57178 6.55859C8.6027 6.6123 8.6499 6.66276 8.71338 6.70996C8.77686 6.75553 8.85661 6.79867 8.95264 6.83936C9.04867 6.88005 9.16178 6.91911 9.29199 6.95654C9.48893 7.01514 9.66064 7.08024 9.80713 7.15186C9.95361 7.22184 10.0757 7.3016 10.1733 7.39111C10.271 7.48063 10.3442 7.58236 10.3931 7.69629C10.4419 7.80859 10.4663 7.93636 10.4663 8.07959C10.4663 8.22933 10.4362 8.36442 10.376 8.48486C10.3158 8.60368 10.2295 8.7054 10.1172 8.79004C10.0065 8.87305 9.87305 8.93734 9.7168 8.98291C9.56217 9.02686 9.38965 9.04883 9.19922 9.04883C9.02832 9.04883 8.85986 9.02604 8.69385 8.98047C8.52946 8.9349 8.37972 8.86572 8.24463 8.77295C8.10954 8.67855 8.00212 8.56136 7.92236 8.42139C7.84261 8.27979 7.80273 8.11458 7.80273 7.92578H8.41553C8.41553 8.04134 8.43506 8.13981 8.47412 8.22119C8.51481 8.30257 8.57096 8.3693 8.64258 8.42139C8.71419 8.47184 8.7972 8.50928 8.8916 8.53369C8.98763 8.55811 9.09017 8.57031 9.19922 8.57031C9.34245 8.57031 9.46208 8.54997 9.55811 8.50928C9.65576 8.46859 9.729 8.41162 9.77783 8.33838C9.82666 8.26514 9.85107 8.1805 9.85107 8.08447Z" fill="#091E42"/>
<rect x="2" y="2" width="11" height="11" rx="2" stroke="#99CCFF" stroke-width="4"/>
<rect x="27" y="27" width="11" height="11" rx="2" fill="#99CCFF"/>
<path d="M31.9067 32.3936H31.001L30.9961 31.9468H31.7871C31.9206 31.9468 32.0337 31.9272 32.1265 31.8882C32.2209 31.8475 32.2925 31.7897 32.3413 31.7148C32.3901 31.6383 32.4146 31.5464 32.4146 31.439C32.4146 31.3201 32.3918 31.2233 32.3462 31.1484C32.3006 31.0736 32.2306 31.019 32.1362 30.9849C32.0435 30.9507 31.9246 30.9336 31.7798 30.9336H31.1865V34H30.5737V30.4453H31.7798C31.9751 30.4453 32.1493 30.464 32.3022 30.5015C32.4569 30.5389 32.5879 30.5975 32.6953 30.6772C32.8044 30.7554 32.8866 30.8547 32.9419 30.9751C32.9989 31.0955 33.0273 31.2388 33.0273 31.4048C33.0273 31.5513 32.9924 31.6855 32.9224 31.8076C32.8524 31.9281 32.749 32.0265 32.6123 32.103C32.4756 32.1795 32.3055 32.2251 32.1021 32.2397L31.9067 32.3936ZM31.8799 34H30.8081L31.084 33.5142H31.8799C32.0182 33.5142 32.1338 33.4914 32.2266 33.4458C32.3193 33.3986 32.3885 33.3343 32.4341 33.2529C32.4813 33.1699 32.5049 33.0731 32.5049 32.9624C32.5049 32.8468 32.4845 32.7467 32.4438 32.6621C32.4032 32.5758 32.3389 32.5099 32.251 32.4644C32.1631 32.4172 32.0483 32.3936 31.9067 32.3936H31.2183L31.2231 31.9468H32.1191L32.2583 32.1152C32.4536 32.1217 32.6139 32.1649 32.7393 32.2446C32.8662 32.3244 32.9606 32.4277 33.0225 32.5547C33.0843 32.6816 33.1152 32.8184 33.1152 32.9648C33.1152 33.1911 33.0656 33.3807 32.9663 33.5337C32.8687 33.6867 32.7279 33.8031 32.5439 33.8828C32.36 33.9609 32.1387 34 31.8799 34ZM34.3872 30.4453V34H33.7744V30.4453H34.3872Z" fill="#091E42"/>
<rect x="27" y="27" width="11" height="11" rx="2" stroke="#99CCFF" stroke-width="4"/>
<rect x="2" y="27" width="11" height="11" rx="2" fill="#99CCFF"/>
<path d="M6.3623 33.5264L7.29736 34.2686L6.89941 34.6177L5.98145 33.8828L6.3623 33.5264ZM7.30469 32.125V32.3203C7.30469 32.5889 7.26969 32.8298 7.19971 33.043C7.12972 33.2562 7.02962 33.4377 6.89941 33.5874C6.76921 33.7371 6.61377 33.8519 6.43311 33.9316C6.25244 34.0098 6.05225 34.0488 5.83252 34.0488C5.61442 34.0488 5.41504 34.0098 5.23438 33.9316C5.05534 33.8519 4.8999 33.7371 4.76807 33.5874C4.63623 33.4377 4.53369 33.2562 4.46045 33.043C4.38883 32.8298 4.35303 32.5889 4.35303 32.3203V32.125C4.35303 31.8564 4.38883 31.6164 4.46045 31.4048C4.53206 31.1916 4.63298 31.0101 4.76318 30.8604C4.89502 30.709 5.05046 30.5942 5.22949 30.5161C5.41016 30.4364 5.60954 30.3965 5.82764 30.3965C6.04736 30.3965 6.24756 30.4364 6.42822 30.5161C6.61051 30.5942 6.76676 30.709 6.89697 30.8604C7.02718 31.0101 7.12728 31.1916 7.19727 31.4048C7.26888 31.6164 7.30469 31.8564 7.30469 32.125ZM6.68945 32.3203V32.1201C6.68945 31.9215 6.66992 31.7466 6.63086 31.5952C6.59342 31.4422 6.53727 31.3145 6.4624 31.2119C6.38916 31.1077 6.29883 31.0296 6.19141 30.9775C6.08561 30.9238 5.96436 30.897 5.82764 30.897C5.69417 30.897 5.57454 30.9238 5.46875 30.9775C5.36296 31.0296 5.27262 31.1077 5.19775 31.2119C5.12288 31.3145 5.06592 31.4422 5.02686 31.5952C4.98779 31.7466 4.96826 31.9215 4.96826 32.1201V32.3203C4.96826 32.5189 4.98779 32.6947 5.02686 32.8477C5.06592 33.0007 5.12288 33.13 5.19775 33.2358C5.27425 33.34 5.3654 33.4189 5.47119 33.4727C5.57861 33.5247 5.69906 33.5508 5.83252 33.5508C5.96924 33.5508 6.09049 33.5247 6.19629 33.4727C6.30208 33.4189 6.3916 33.34 6.46484 33.2358C6.53809 33.13 6.59342 33.0007 6.63086 32.8477C6.66992 32.6947 6.68945 32.5189 6.68945 32.3203ZM9.31152 30.9189L8.24951 34H7.60742L8.94531 30.4453H9.35547L9.31152 30.9189ZM10.2002 34L9.13574 30.9189L9.08936 30.4453H9.50195L10.8447 34H10.2002ZM10.1489 32.6816V33.1675H8.21533V32.6816H10.1489Z" fill="#091E42"/>
<rect x="2" y="27" width="11" height="11" rx="2" stroke="#99CCFF" stroke-width="4"/>
<rect x="27" y="2" width="11" height="11" rx="2" fill="#99CCFF"/>
<path d="M30.8472 9H30.0879L30.0928 8.51416H30.8472C31.0669 8.51416 31.2508 8.46615 31.3989 8.37012C31.5487 8.27409 31.661 8.13656 31.7358 7.95752C31.8123 7.77848 31.8506 7.56527 31.8506 7.31787V7.125C31.8506 6.93294 31.8286 6.76286 31.7847 6.61475C31.7424 6.46663 31.6789 6.34212 31.5942 6.24121C31.5112 6.1403 31.4087 6.0638 31.2866 6.01172C31.1662 5.95964 31.027 5.93359 30.8691 5.93359H30.0732V5.44531H30.8691C31.1051 5.44531 31.3208 5.48519 31.5161 5.56494C31.7114 5.64307 31.8799 5.75618 32.0215 5.9043C32.1647 6.05241 32.2746 6.22982 32.3511 6.43652C32.4276 6.64323 32.4658 6.87435 32.4658 7.12988V7.31787C32.4658 7.5734 32.4276 7.80452 32.3511 8.01123C32.2746 8.21794 32.1647 8.39535 32.0215 8.54346C31.8783 8.68994 31.7074 8.80306 31.5088 8.88281C31.3118 8.96094 31.0913 9 30.8472 9ZM30.4272 5.44531V9H29.8145V5.44531H30.4272ZM35.4077 8.51416V9H33.5205V8.51416H35.4077ZM33.6938 5.44531V9H33.0811V5.44531H33.6938ZM35.1611 6.92969V7.4082H33.5205V6.92969H35.1611ZM35.3955 5.44531V5.93359H33.5205V5.44531H35.3955Z" fill="#091E42"/>
<rect x="27" y="2" width="11" height="11" rx="2" stroke="#99CCFF" stroke-width="4"/>
</svg>
