<svg width="40" height="40" viewBox="0 0 40 40" fill="none" xmlns="http://www.w3.org/2000/svg">
<path d="M15.0219 11.0312C16.1746 11.0312 17.1083 10.117 17.1083 8.98836C17.1083 7.85971 16.1746 6.94556 15.0219 6.94556C13.8692 6.94556 12.9355 7.85971 12.9355 8.98836C12.9355 10.117 13.8692 11.0312 15.0219 11.0312ZM15.0219 12.0526C13.6292 12.0526 10.8491 12.7369 10.8491 14.0954V15.1168H19.1946V14.0954C19.1946 12.7369 16.4145 12.0526 15.0219 12.0526Z" fill="#42526E" fill-opacity="0.87"/>
<path d="M23.7851 14.708C24.9378 14.708 25.8714 13.7939 25.8714 12.6652C25.8714 11.5366 24.9378 10.6224 23.7851 10.6224C22.6323 10.6224 21.6987 11.5366 21.6987 12.6652C21.6987 13.7939 22.6323 14.708 23.7851 14.708ZM23.7851 15.7294C22.3924 15.7294 19.6123 16.4138 19.6123 17.7723V18.7937H27.9578V17.7723C27.9578 16.4138 25.1777 15.7294 23.7851 15.7294Z" fill="#42526E" fill-opacity="0.87"/>
<path d="M6.25918 14.708C7.41191 14.708 8.34556 13.7939 8.34556 12.6652C8.34556 11.5366 7.41191 10.6224 6.25918 10.6224C5.10646 10.6224 4.1728 11.5366 4.1728 12.6652C4.1728 13.7939 5.10646 14.708 6.25918 14.708ZM6.25918 15.7294C4.86652 15.7294 2.08643 16.4138 2.08643 17.7723V18.7937H10.4319V17.7723C10.4319 16.4138 7.65184 15.7294 6.25918 15.7294Z" fill="#42526E" fill-opacity="0.87"/>
<path d="M29.5438 14.7082C29.5438 22.5453 23.0522 28.9164 15.0219 28.9164C6.99168 28.9164 0.5 22.5453 0.5 14.7082C0.5 6.87112 6.99168 0.5 15.0219 0.5C23.0522 0.5 29.5438 6.87112 29.5438 14.7082Z" stroke="#42526E"/>
<ellipse rx="9.55913" ry="2.10506" transform="matrix(0.714529 0.699606 -0.714529 0.699606 31.6655 31.8397)" fill="#42526E"/>
</svg>
