<svg width="46" height="42" viewBox="0 0 46 42" fill="none" xmlns="http://www.w3.org/2000/svg">
<path d="M39.173 4.46167V6.08573C39.173 7.43099 36.8062 8.52182 33.8873 8.52182C30.9684 8.52182 28.6016 7.43099 28.6016 6.08573V4.46167C28.6016 5.80693 30.9684 6.89776 33.8873 6.89776C36.8062 6.89776 39.173 5.80693 39.173 4.46167ZM28.6016 7.16844C28.6016 8.5137 30.9684 9.60453 33.8873 9.60453C36.8062 9.60453 39.173 8.5137 39.173 7.16844V8.7925C39.173 10.1378 36.8062 11.2286 33.8873 11.2286C30.9684 11.2286 28.6016 10.1378 28.6016 8.7925V7.16844ZM33.8873 5.81505C30.9684 5.81505 28.6016 4.72422 28.6016 3.37896C28.6016 2.0337 30.9684 0.942871 33.8873 0.942871C36.8062 0.942871 39.173 2.0337 39.173 3.37896C39.173 4.72422 36.8062 5.81505 33.8873 5.81505Z" fill="#42526E"/>
<path d="M9.81021 6.56116C9.83195 6.39659 9.84825 6.23202 9.84825 6.05716C9.84825 5.88231 9.83195 5.71774 9.81021 5.55316L10.9568 4.70459C11.06 4.62745 11.0872 4.48859 11.022 4.37545L9.9352 2.59602C9.86999 2.48288 9.72327 2.44174 9.60372 2.48288L8.25066 2.99716C7.96809 2.79145 7.66379 2.62174 7.33231 2.49316L7.12582 1.13031C7.10952 1.00688 6.9954 0.914307 6.85955 0.914307H4.68596C4.55011 0.914307 4.43599 1.00688 4.41969 1.13031L4.2132 2.49316C3.88172 2.62174 3.57742 2.79659 3.29485 2.99716L1.94179 2.48288C1.81681 2.43659 1.67552 2.48288 1.61031 2.59602L0.523515 4.37545C0.452873 4.48859 0.485477 4.62745 0.588723 4.70459L1.7353 5.55316C1.71356 5.71774 1.69726 5.88745 1.69726 6.05716C1.69726 6.22688 1.71356 6.39659 1.7353 6.56116L0.588723 7.40974C0.485477 7.48688 0.458307 7.62574 0.523515 7.73888L1.61031 9.51831C1.67552 9.63145 1.82224 9.67259 1.94179 9.63145L3.29485 9.11716C3.57742 9.32288 3.88172 9.49259 4.2132 9.62116L4.41969 10.984C4.43599 11.1075 4.55011 11.2 4.68596 11.2H6.85955C6.9954 11.2 7.10952 11.1075 7.12582 10.984L7.33231 9.62116C7.66379 9.49259 7.96809 9.31774 8.25066 9.11716L9.60372 9.63145C9.7287 9.67774 9.86999 9.63145 9.9352 9.51831L11.022 7.73888C11.0872 7.62574 11.06 7.48688 10.9568 7.40974L9.81021 6.56116V6.56116ZM5.77275 7.85716C4.72399 7.85716 3.87086 7.04974 3.87086 6.05716C3.87086 5.06459 4.72399 4.25716 5.77275 4.25716C6.82152 4.25716 7.67465 5.06459 7.67465 6.05716C7.67465 7.04974 6.82152 7.85716 5.77275 7.85716Z" fill="#42526E" fill-opacity="0.87"/>
<path d="M19.5715 32.8285C21.9078 32.8285 23.8001 30.9874 23.8001 28.7143C23.8001 26.4411 21.9078 24.6 19.5715 24.6C17.2352 24.6 15.3429 26.4411 15.3429 28.7143C15.3429 30.9874 17.2352 32.8285 19.5715 32.8285ZM10.0572 30.7714V27.6857H7.94291V30.7714H4.77148V32.8285H7.94291V35.9143H10.0572V32.8285H13.2286V30.7714H10.0572ZM19.5715 34.8857C16.7489 34.8857 11.1143 36.264 11.1143 39V41.0571H28.0286V39C28.0286 36.264 22.3941 34.8857 19.5715 34.8857Z" fill="#42526E" fill-opacity="0.87"/>
<path d="M21.625 9L24.0581 11.0037L20.9981 13.5238L22.5069 14.7663L25.5669 12.2463L28 14.25V9H21.625ZM17.375 9H11V14.25L13.4331 12.2463L18.4375 16.3587V23H20.5625V15.6413L14.9419 11.0037L17.375 9Z" fill="#99CCFF" fill-opacity="0.87"/>
</svg>
